<svg xmlns="http://www.w3.org/2000/svg" xmlns:xlink="http://www.w3.org/1999/xlink" width="198" height="50" viewBox="0 0 198 50">
    <defs>
        <path id="a" d="M0 .643h37.692v42.832H0z"/>
        <path id="c" d="M0 49.382h197.873V0H0z"/>
    </defs>
    <g fill="none" fill-rule="evenodd">
        <path fill="#28A231" d="M65.976 27.268c.26.392.62.57 1.124.582.69.018 1.129-.654 1.129-.654l11.41-14.533c.943-.977 1.872-.188 1.872-.188.903.937.23 1.794.23 1.794l-2.552 3.245-.001.017a1.242 1.242 0 0 0-.053 1.678v.005l2.567 3.235 8.088-10.226-3.232-4.095-.597-.772c-.525-.75-1.696-.923-1.696-.923h-4.843c-1.284 0-1.984.882-1.984.882L63.875 24.618l2.1 2.65zM65.4 18.398l-3.243-4.136c-.661-1.057.302-1.813.302-1.813 1.212-.703 1.914.38 1.914.38l2.684 3.428 3.179-4.07-3.664-4.684c-.875-1.245-2.207-1.07-2.207-1.07h-4.376c-1.4 0-2.003.865-2.003.865l-3.868 4.88 8.088 10.27 3.195-4.05z"/>
        <path fill="#28A231" d="M77.906 21.924s-.374-.575-1.092-.564c-.75.011-1.052.506-1.052.506L64.234 36.583c-.933 1.02-1.938.2-1.938.2-.903-.937-.162-1.806-.162-1.806l2.584-3.301.001-.017a1.24 1.24 0 0 0 .054-1.677v-.006l-2.567-3.234-8.115 10.341 4.524 5.692 7.11.018 14.298-18.177-2.117-2.692zM78.502 30.792l3.272 4.185c.753 1.039-.197 1.806-.197 1.806-1.257.839-2.025-.414-2.025-.414l-2.737-3.457-3.179 4.069 4.583 5.83 7.055-.018 4.524-5.764-8.105-10.292-3.191 4.055zM89.738 21.415c-1.809 0-3.28 1.445-3.28 3.22 0 1.774 1.471 3.218 3.28 3.218 1.81 0 3.282-1.444 3.282-3.219 0-1.774-1.472-3.219-3.282-3.219m0 4.95a1.73 1.73 0 0 1-1.725-1.73 1.73 1.73 0 0 1 1.725-1.732 1.73 1.73 0 0 1 1.726 1.731 1.73 1.73 0 0 1-1.726 1.731M71.934 6.438c1.81 0 3.281-1.444 3.281-3.219S73.744 0 71.934 0s-3.28 1.444-3.28 3.219 1.47 3.22 3.28 3.22m0-4.95a1.73 1.73 0 0 1 1.725 1.73 1.73 1.73 0 0 1-1.725 1.731 1.73 1.73 0 0 1 0-3.462M71.934 49.381c1.81 0 3.281-1.443 3.281-3.219 0-1.774-1.471-3.218-3.281-3.218s-3.28 1.444-3.28 3.218c0 1.776 1.47 3.22 3.28 3.22m0-4.95c.951 0 1.725.775 1.725 1.73a1.73 1.73 0 0 1-1.725 1.731 1.73 1.73 0 0 1 0-3.46M57.363 24.622c0-1.774-1.472-3.22-3.28-3.22-1.81 0-3.282 1.446-3.282 3.22 0 1.775 1.472 3.22 3.282 3.22 1.808 0 3.28-1.445 3.28-3.22m-5.007 0c0-.954.775-1.731 1.727-1.731a1.73 1.73 0 0 1 0 3.462 1.731 1.731 0 0 1-1.727-1.73"/>
        <g transform="translate(0 2.556)">
            <mask id="b" fill="#fff">
                <use xlink:href="#a"/>
            </mask>
            <path fill="#929190" d="M36.774 1.555V25.63c0 2.917-.923 5.61-2.743 8.004-1.483 1.952-3.562 3.72-6.184 5.252-4.012 2.35-8.088 3.431-9.002 3.655-.91-.223-4.952-1.293-8.962-3.632-2.63-1.535-4.72-3.303-6.209-5.256-1.83-2.4-2.757-5.1-2.757-8.023V1.555h35.857zm.918-.912H0V25.63c0 13.714 18.837 17.846 18.837 17.846h.018s18.837-4.132 18.837-17.846V.643z" mask="url(#b)"/>
        </g>
        <path fill="#929190" d="M23.41 11.197V8.902h-2.374v2.143h-.927V8.902h-2.444v2.143h-.928V8.902h-2.414v2.296l1.179 2.012c.04.071.061.15.061.232l.01 10.506h1.142l-.012-3.773c0-.89 1.018-1.7 2.137-1.7 1.12 0 2.137.81 2.137 1.699l.013 3.774h1.171l-.004-3.983-.003-.055v-1.976c0-.01 0-.02.002-.03l-.001-1.438-.001-.007v-.629l-.003-2.387c0-.083.022-.164.065-.235l1.195-2.011zM14.646 24.195l-.004-3.483-.42.252a.463.463 0 0 1-.5-.015l-.51-.345c.001.014.002.03.001.044l-.017 1.342a.462.462 0 0 1-.177.356.478.478 0 0 1 .147.079c.617.492.663 1.196.53 1.77h.95z"/>
        <path fill="#929190" d="M18.84 19.398c-.711 0-1.21.504-1.21.776l.012 3.775h2.42l-.01-3.774c0-.273-.5-.777-1.212-.777"/>
        <path fill="#929190" d="M4.712 24.195a4.176 4.176 0 0 1-.297-1.06c-.118-.726-.093-1.396-.092-1.425a.46.46 0 0 1 .326-.422l1.013-.312-1.143-.804a.461.461 0 0 1-.196-.376V18.52a.46.46 0 0 1 .248-.409l.448-.232v-.434l-.407-.163a.463.463 0 0 1-.29-.427l-.001-1.536c0-.252.205-.459.459-.461l1.43-.013c-.025-.377-.032-.89.059-1.316.124-.577.454-1.201.611-1.48l-.076-.533a.46.46 0 0 1 .459-.525h.77c.089 0 .176.025.25.071l1.885 1.188h.867c.125 0 .247.052.335.143a.46.46 0 0 1 .128.339l-.065 1.477a.46.46 0 0 1-.151.319l.575.001c.126.001.247.053.333.143l.263.27.2-.151.334-.7a.465.465 0 0 1 .42-.264h1.23v-.261l-1.178-2.012a.453.453 0 0 1-.062-.232v-2.88c0-.255.207-.462.463-.462h10.015c.255 0 .463.207.463.461v2.881a.453.453 0 0 1-.064.234l-1.195 2.012v.26h1.22c.18 0 .342.1.419.263l.335.7.199.152.263-.271a.465.465 0 0 1 .332-.143l.576-.001a.462.462 0 0 1-.15-.32l-.065-1.476a.46.46 0 0 1 .463-.482h.867l1.885-1.188a.475.475 0 0 1 .248-.071h.772a.461.461 0 0 1 .458.525l-.076.532c.158.28.487.904.611 1.48.093.427.084.94.06 1.317l1.43.013c.254.002.459.209.459.461l-.002 1.536a.462.462 0 0 1-.289.427l-.408.163v.434l.448.232c.152.08.249.237.249.409v1.276c0 .15-.073.289-.195.376l-1.146.804 1.015.312a.46.46 0 0 1 .325.422c.001.029.025.699-.09 1.426a4.209 4.209 0 0 1-.297 1.059h1.685l.022.002V6.387H3.032v17.808h1.68z"/>
        <path fill="#929190" d="M24.54 22.424a.465.465 0 0 1 .147-.078.459.459 0 0 1-.179-.357l-.017-1.34c0-.017 0-.03.002-.046l-.508.347a.468.468 0 0 1-.502.014l-.399-.238.004 3.468h.92c-.131-.574-.085-1.278.532-1.77M30.696 33.717a.463.463 0 0 1-.464-.461v-3.011c0-.223-.136-.502-.346-.708a1.285 1.285 0 0 0-.952-.368c-.71.01-1.137.559-1.197 1.099v2.988a.461.461 0 0 1-.463.46H24.52a.461.461 0 0 1-.463-.46v-3.011c0-.223-.137-.502-.348-.708a1.286 1.286 0 0 0-.95-.368c-.312.004-.59.117-.806.317l2.266 11.484c3.187-1.406 6.962-3.696 9-7.253h-2.523zM23.33 41.256l-3.184-16.14h-2.585l-3.18 16.146a.544.544 0 0 1-.018.064c2.21.903 4.004 1.36 4.504 1.517.508-.159 2.291-.614 4.486-1.506a.674.674 0 0 1-.023-.081M15.759 29.471a1.205 1.205 0 0 0-.787-.3c-.008-.002-.017-.002-.026-.002-.452 0-.753.2-.926.37-.21.207-.346.483-.346.707v3.012a.462.462 0 0 1-.463.46l-2.757.001a.469.469 0 0 1-.463-.461v-2.99c-.059-.54-.485-1.086-1.196-1.098H8.77c-.454 0-.754.2-.927.37-.21.206-.347.482-.347.706v3.012a.461.461 0 0 1-.463.46l-2.513.001c2.034 3.545 5.796 5.834 8.976 7.24l2.263-11.488z"/>
        <path fill="#929190" d="M34.68 25.116H21.09l.667 3.384a2.25 2.25 0 0 1 2.602.381c.39.382.624.891.624 1.364v2.55h1.828v-2.55l.002-.042a2.15 2.15 0 0 1 2.106-1.957c.619-.01 1.19.217 1.618.635.39.382.623.891.623 1.364v2.55h2.532a11.114 11.114 0 0 0 1.01-4.688v-2.993l-.022.002M6.57 32.797v-2.551c0-.473.233-.982.622-1.364a2.255 2.255 0 0 1 1.618-.634 2.151 2.151 0 0 1 2.11 1.998v2.55h1.827v-2.55c0-.473.232-.982.623-1.364a2.256 2.256 0 0 1 1.617-.634c.343.005.672.092.965.244l.665-3.376H3.033v2.991c0 1.75.377 3.307 1.012 4.69H6.57zM7.66 23.245h.752c.057.093.09.2.105.31l.012.187c-.001.162-.03.321-.063.452H5.833c-.38-.258-.57-1.281-.585-2.124l1.151-.354a.463.463 0 0 0 .327-.44v-.442c0-.15-.073-.29-.196-.376l-1.28-.9v-.759l.446-.232a.46.46 0 0 0 .25-.408v-1.024a.462.462 0 0 0-.29-.428l-.407-.164v-.767l1.215-.011.577.94.004 1.312-.397 1.245a.46.46 0 0 0 .442.6h.351c.228 0 .42-.164.457-.387.034-.204.144-.792.248-1.058.08-.205.41-.646.619-.894a.46.46 0 0 0-.006-.6l-1.594-1.818c-.031-.274-.087-.923.01-1.384.109-.499.458-1.135.582-1.338a.456.456 0 0 0 .064-.305l-.024-.165H7.9L9.785 13.1c.074.046.16.071.248.071h.517l-.03.688-.608.22a.463.463 0 0 0-.306.436l.003.473a.462.462 0 0 0 .463.458l1.587.004.414.427a.465.465 0 0 0 .616.046s.722-.57.753-.637l.258-.539h.925v1.678s-1.692.577-1.832.645c-.11.055-.171.576-.152.701.019.125.013.175.195.31 0 0 .492.385.643.438l.492-.467.651.044v1.554l-.622.37-1.945-1.323a.467.467 0 0 0-.628.097l-.304.387a.46.46 0 0 0 .048.621l1.113 1.036-.011.843-1.116.492a.462.462 0 0 0-.276.422v.188c0 .255.208.461.464.461h1.343c.231.287.14.691.043.95H9.637c-.106-.11-.16-.304-.183-.52 0-.06-.004-.119-.01-.178a3.36 3.36 0 0 1 .07-.769l.72-.916a.456.456 0 0 0 .097-.262l.022-.439a.465.465 0 0 0-.639-.45l-1.162.472a.462.462 0 0 0-.283.36l-.069.46-.674.203a.462.462 0 0 0-.33.441v.187c0 .255.207.461.464.461M30.046 23.245h-.752a.79.79 0 0 0-.107.31 2.981 2.981 0 0 1-.01.187c0 .162.03.321.062.452h2.633c.381-.258.57-1.281.586-2.124l-1.152-.354a.462.462 0 0 1-.327-.44v-.442c0-.15.074-.29.196-.376l1.281-.9v-.759l-.447-.232a.46.46 0 0 1-.25-.408v-1.024c0-.188.115-.357.29-.428l.408-.164v-.767l-1.215-.011-.578.94-.003 1.312.397 1.245a.465.465 0 0 1-.068.412.47.47 0 0 1-.375.189h-.35a.463.463 0 0 1-.458-.388c-.034-.204-.144-.792-.247-1.058-.08-.205-.41-.646-.62-.894a.462.462 0 0 1 .006-.6l1.595-1.818c.03-.274.088-.923-.011-1.384-.107-.499-.457-1.135-.582-1.338a.46.46 0 0 1-.064-.305l.024-.165h-.103L27.92 13.1a.464.464 0 0 1-.248.071h-.517l.03.688.61.22a.463.463 0 0 1 .304.436l-.002.473a.463.463 0 0 1-.463.458l-1.587.004-.414.427a.466.466 0 0 1-.616.046s-.722-.57-.754-.637l-.256-.539h-.926v1.678s1.692.577 1.831.645c.111.055.172.576.153.701-.02.125-.013.175-.194.31 0 0-.495.385-.645.438l-.49-.467-.653.044v1.554l.624.37 1.944-1.323a.465.465 0 0 1 .626.097l.305.387a.46.46 0 0 1-.048.621l-1.113 1.036.012.843 1.116.492c.167.074.275.24.275.422v.188a.462.462 0 0 1-.464.461h-1.343c-.231.287-.14.691-.043.95h3.095c.105-.11.16-.304.181-.52a2.24 2.24 0 0 1 .012-.178 3.405 3.405 0 0 0-.07-.769l-.72-.916a.462.462 0 0 1-.099-.262l-.02-.439a.458.458 0 0 1 .195-.4c.13-.09.297-.11.444-.05l1.161.472c.152.062.26.199.284.36l.068.46.675.203c.195.059.33.238.33.441v.187a.462.462 0 0 1-.464.461M102.941 19.16v-.017c0-1.752 1.294-3.303 3.221-3.303 1.084 0 1.753.31 2.394.85l-.467.545c-.496-.428-1.045-.73-1.954-.73-1.423 0-2.44 1.195-2.44 2.618v.02c0 1.522.98 2.652 2.54 2.652a3.04 3.04 0 0 0 1.854-.637v-1.587h-1.954v-.649h2.651v2.546a3.91 3.91 0 0 1-2.578.976c-2.019 0-3.267-1.46-3.267-3.284M111.16 19.16v-.017c0-1.76 1.33-3.303 3.285-3.303 1.954 0 3.267 1.523 3.267 3.283v.02c0 1.76-1.331 3.3-3.284 3.3-1.955 0-3.268-1.522-3.268-3.283m5.8 0v-.017c0-1.451-1.065-2.637-2.532-2.637-1.47 0-2.515 1.167-2.515 2.617v.02c0 1.45 1.063 2.635 2.532 2.635 1.468 0 2.515-1.167 2.515-2.618M120.307 15.95h2.734c.734 0 1.312.21 1.679.565.266.274.413.612.413 1.022v.018c0 .83-.514 1.259-1.018 1.478.762.228 1.375.665 1.375 1.54v.02c0 1.094-.926 1.741-2.33 1.741h-2.853V15.95zm4.092 1.687c0-.63-.505-1.04-1.421-1.04h-1.956v2.199h1.9c.872 0 1.477-.393 1.477-1.14v-.02zm-1.348 1.797h-2.029v2.253h2.158c.971 0 1.577-.43 1.577-1.14v-.018c0-.694-.587-1.095-1.706-1.095z"/>
        <mask id="d" fill="#fff">
            <use xlink:href="#c"/>
        </mask>
        <path fill="#929190" d="M128.083 22.335h.724V15.95h-.724zM131.741 15.95h4.642v.657h-3.918v2.179h3.506v.657h-3.506v2.234h3.964v.657h-4.688zM138.834 15.95h2.76c.79 0 1.423.237 1.827.638.312.31.495.757.495 1.26v.017c0 1.058-.734 1.678-1.742 1.86l1.971 2.61h-.89l-1.862-2.482h-1.835v2.481h-.724V15.95zm2.697 3.257c.963 0 1.65-.494 1.65-1.315v-.018c0-.784-.604-1.259-1.64-1.259h-1.983v2.592h1.973zM146.53 15.95h.678l4.046 5.117V15.95h.707v6.384h-.578l-4.148-5.235v5.235h-.706zM154.554 19.16v-.017c0-1.76 1.331-3.303 3.284-3.303 1.955 0 3.268 1.523 3.268 3.283v.02c0 1.76-1.331 3.3-3.285 3.3-1.954 0-3.267-1.522-3.267-3.283m5.8 0v-.017c0-1.451-1.065-2.637-2.533-2.637s-2.515 1.167-2.515 2.617v.02c0 1.45 1.064 2.635 2.532 2.635 1.47 0 2.516-1.167 2.516-2.618M167.042 15.95h2.23c2.017 0 3.412 1.377 3.412 3.174v.018c0 1.796-1.395 3.192-3.413 3.192h-2.229V15.95zm.725.665v5.053h1.504c1.624 0 2.662-1.095 2.662-2.508v-.018c0-1.414-1.038-2.527-2.662-2.527h-1.504zM174.987 15.95h4.642v.657h-3.918v2.179h3.505v.657h-3.505v2.234h3.964v.657h-4.688zM185.447 15.95h.725v5.718h3.616v.666h-4.34zM194.237 15.904h.68l2.927 6.43h-.781l-.752-1.687h-3.495l-.762 1.688h-.744l2.927-6.431zm1.789 4.086l-1.46-3.246-1.467 3.246h2.927zM102.804 30.105v-.017c0-1.816 1.377-3.303 3.349-3.303 1.21 0 1.936.402 2.532.986l-.899 1.03c-.496-.446-1-.72-1.641-.72-1.085 0-1.863.894-1.863 1.988v.02c0 1.092.762 2.005 1.863 2.005.733 0 1.183-.291 1.687-.749l.899.904c-.66.703-1.394 1.14-2.633 1.14-1.89 0-3.294-1.45-3.294-3.284M109.897 33.28h1.413v-6.384h-1.413zM112.94 30.544v-3.649h1.414v3.613c0 1.039.523 1.576 1.385 1.576s1.385-.519 1.385-1.53v-3.659h1.413v3.603c0 1.934-1.092 2.882-2.818 2.882-1.724 0-2.778-.957-2.778-2.836M120.144 26.896h2.505c2.018 0 3.412 1.377 3.412 3.174v.018c0 1.796-1.394 3.192-3.412 3.192h-2.505v-6.384zm2.505 5.115c1.156 0 1.936-.774 1.936-1.905v-.018c0-1.131-.78-1.924-1.936-1.924h-1.092v3.847h1.092zM129.191 26.85h1.303l2.752 6.43h-1.477l-.587-1.432h-2.715l-.587 1.432h-1.441l2.752-6.43zm1.487 3.758l-.853-2.07-.853 2.07h1.706zM134.27 26.896h2.504c2.018 0 3.413 1.377 3.413 3.174v.018c0 1.796-1.395 3.192-3.413 3.192h-2.504v-6.384zm2.504 5.115c1.157 0 1.936-.774 1.936-1.905v-.018c0-1.131-.779-1.924-1.936-1.924h-1.091v3.847h1.091zM144.29 26.896h2.504c2.019 0 3.413 1.377 3.413 3.174v.018c0 1.796-1.394 3.192-3.413 3.192h-2.505v-6.384zm2.504 5.115c1.156 0 1.936-.774 1.936-1.905v-.018c0-1.131-.78-1.924-1.936-1.924h-1.092v3.847h1.092zM151.547 26.896h4.844v1.249h-3.44v1.296h3.027v1.248h-3.027v1.341h3.486v1.25h-4.89zM160.54 26.896h1.522l1.687 2.699 1.689-2.7h1.523v6.385h-1.404V29.11l-1.808 2.728h-.035l-1.79-2.7v4.14h-1.385zM168.645 26.896h4.844v1.249h-3.44v1.296h3.027v1.248h-3.027v1.341h3.487v1.25h-4.89v-6.384zm2.689-2.116l1.202.52-1.175 1.093h-1.065l1.038-1.613zM176.683 30.033l-2.147-3.138h1.651l1.348 2.07 1.359-2.07h1.605l-2.146 3.12 2.238 3.265h-1.652l-1.44-2.19-1.45 2.19h-1.605zM181.675 33.28h1.413v-6.384h-1.413zM184.454 30.105v-.017c0-1.816 1.376-3.303 3.349-3.303 1.21 0 1.936.402 2.533.986l-.9 1.03c-.496-.446-1.001-.72-1.642-.72-1.083 0-1.862.894-1.862 1.988v.02c0 1.092.76 2.005 1.862 2.005.733 0 1.184-.291 1.688-.749l.9.904c-.662.703-1.395 1.14-2.634 1.14-1.89 0-3.294-1.45-3.294-3.284M191.048 30.105v-.017c0-1.816 1.44-3.303 3.422-3.303 1.982 0 3.403 1.47 3.403 3.284v.02c0 1.814-1.44 3.3-3.42 3.3-1.982 0-3.405-1.469-3.405-3.284m5.349 0v-.017c0-1.095-.809-2.008-1.945-2.008-1.138 0-1.926.895-1.926 1.99v.018c0 1.093.805 2.006 1.944 2.006 1.137 0 1.927-.893 1.927-1.989" mask="url(#d)"/>
    </g>
</svg>
